{
	"patcher" : 	{
		"fileversion" : 1,
		"appversion" : 		{
			"major" : 9,
			"minor" : 0,
			"revision" : 2,
			"architecture" : "x64",
			"modernui" : 1
		}
,
		"classnamespace" : "box",
		"rect" : [ 611.0, 199.0, 547.0, 780.0 ],
		"gridsize" : [ 15.0, 15.0 ],
		"boxes" : [ 			{
				"box" : 				{
					"comment" : "y",
					"id" : "obj-5",
					"index" : 0,
					"maxclass" : "outlet",
					"numinlets" : 1,
					"numoutlets" : 0,
					"patching_rect" : [ 415.0, 332.0, 30.0, 30.0 ]
				}

			}
, 			{
				"box" : 				{
					"comment" : "x",
					"id" : "obj-4",
					"index" : 0,
					"maxclass" : "outlet",
					"numinlets" : 1,
					"numoutlets" : 0,
					"patching_rect" : [ 94.0, 328.0, 30.0, 30.0 ]
				}

			}
, 			{
				"box" : 				{
					"comment" : "bang",
					"id" : "obj-3",
					"index" : 0,
					"maxclass" : "inlet",
					"numinlets" : 0,
					"numoutlets" : 1,
					"outlettype" : [ "" ],
					"patching_rect" : [ 94.0, 43.0, 30.0, 30.0 ]
				}

			}
, 			{
				"box" : 				{
					"code" : "outlets = 2;\r\n\r\nfunction bang()  {\n    // Box-Muller Transform:\n\n    let phi  =   2 * Math.PI * Math.random();\n    let R    =   Math.sqrt(  -2 * Math.log( Math.random() )  );\n    let x    =   R * Math.cos(phi);\n    let y    =   R * Math.sin(phi);\n\r\n\toutlet (0, x);\n\toutlet (1, y);\n}",
					"filename" : "none",
					"fontface" : 0,
					"fontname" : "<Monospaced>",
					"fontsize" : 12.0,
					"id" : "obj-1",
					"maxclass" : "v8.codebox",
					"numinlets" : 1,
					"numoutlets" : 2,
					"outlettype" : [ "", "" ],
					"patching_rect" : [ 94.0, 97.0, 340.0, 200.0 ],
					"saved_object_attributes" : 					{
						"parameter_enable" : 0
					}

				}

			}
 ],
		"lines" : [ 			{
				"patchline" : 				{
					"destination" : [ "obj-4", 0 ],
					"source" : [ "obj-1", 0 ]
				}

			}
, 			{
				"patchline" : 				{
					"destination" : [ "obj-5", 0 ],
					"source" : [ "obj-1", 1 ]
				}

			}
, 			{
				"patchline" : 				{
					"destination" : [ "obj-1", 0 ],
					"source" : [ "obj-3", 0 ]
				}

			}
 ],
		"originid" : "pat-82",
		"dependency_cache" : [  ],
		"autosave" : 0
	}

}
